<svg width="214" height="136" viewBox="0 0 214 136" fill="none" xmlns="http://www.w3.org/2000/svg">
<path d="M40.5963 101.419L20.5881 101.709L80.3226 0L114.249 57.5385H93.9513L80.0326 34.2906L40.5963 101.419Z" fill="#549FE3"/>
<path d="M129.618 118.855L10.1491 119.145L0.237305 136H160.355L139.949 101.128H119.179L129.618 118.855Z" fill="#549FE3"/>
<path d="M91.1907 79.2252V77.5932C91.1907 71.9126 93.6647 67.2677 102.527 67.2677H103.655C106.473 67.2677 109.167 67.6443 111.735 68.3034V73.4191C108.853 72.5717 105.628 72.2579 103.498 72.2579C96.953 72.2579 96.953 74.8314 96.953 78.4092C96.953 81.9871 96.953 84.592 103.498 84.592C105.628 84.592 108.853 84.2468 111.735 83.3994V88.5465C109.167 89.1742 106.473 89.5508 103.655 89.5508H102.527C93.6647 89.5508 91.1907 84.9059 91.1907 79.2252ZM116.985 81.7046V80.4492C116.985 76.1182 118.927 72.6031 125.942 72.6031H126.819C133.834 72.6031 135.776 76.1182 135.776 80.4492V81.7046C135.776 86.0357 133.834 89.5508 126.819 89.5508H125.942C118.927 89.5508 116.985 86.0357 116.985 81.7046ZM121.996 81.0769C121.996 83.1169 121.996 85 126.381 85C130.765 85 130.765 83.1169 130.765 81.0769C130.765 79.0369 130.765 77.1539 126.381 77.1539C121.996 77.1539 121.996 79.0369 121.996 81.0769ZM149.766 85.3139C152.961 85.3139 153.211 84.7803 153.211 84.3095C153.211 83.368 152.084 83.2739 149.61 83.2111C147.073 83.1483 141.311 82.96 141.311 78.0954V77.7815C141.311 75.0511 143.19 72.6031 149.704 72.6031H150.581C152.929 72.6031 155.216 72.8855 157.345 73.3877V77.7502C154.871 77.1852 152.428 76.84 149.798 76.84C146.572 76.84 146.321 77.4049 146.321 77.8757C146.321 78.7545 147.386 78.88 149.923 78.9428C152.366 79.0055 158.222 79.1625 158.222 84.0585V84.3723C158.222 87.1028 156.343 89.5508 149.829 89.5508H148.952C146.259 89.5508 143.691 89.2683 141.248 88.7662V84.4037C144.004 84.9686 147.073 85.3139 149.766 85.3139ZM164.026 67.8954C167.596 67.4874 171.699 67.2677 175.488 67.2677H176.365C183.38 67.2677 185.322 70.0923 185.322 73.5446V74.1723C185.322 76.024 184.413 77.6246 181.595 78.3779C184.883 79.1311 185.948 80.7945 185.948 82.6462V83.2739C185.948 86.7262 183.881 89.5508 176.365 89.5508H175.488C171.699 89.5508 167.596 89.3311 164.026 88.9231V67.8954ZM175.613 72.2892C174.079 72.2892 171.73 72.3834 169.663 72.5717V76.0554H175.238C180.311 76.0554 180.311 75.2394 180.311 74.1723C180.311 73.1366 180.154 72.2892 175.613 72.2892ZM175.238 81.0769H169.663V84.2468C171.73 84.4351 174.048 84.5292 175.707 84.5292C180.718 84.5292 180.937 83.6819 180.937 82.6462C180.937 81.7674 180.937 81.0769 175.238 81.0769ZM211.975 67.8954V72.9169H197.538V76.0554H208.843V81.0769H197.538V83.9015H211.975V88.9231H191.901V67.8954H211.975Z" fill="#0F1D28"/>
</svg>
